# xmcd CD database file
#
# Track frame offsets:
#	150
#	28728
#	45342
#	65294
#	89792
#	109159
#	129580
#	150041
#	178424
#	194956
#	213742
#	229978
#	262918
#	280395
#	296563
#	315968
#
# Disc length: 4449 seconds
#
# Revision: 0
# Processed by: cddbd v1.4PL0 Copyright (c) Steve Scherf et al.
# Submitted via: CDex 1.51
#
DISCID=f0115f10
DTITLE=Sade - The Best Of Sade - Hdcd - Disc 2
DYEAR=2003
DGENRE=Jazz
TTITLE0=Is It A Crime
TTITLE1=Your Love Is King
TTITLE2=The Sweetest Taboo
TTITLE3=Jezebel
TTITLE4=Smooth Operator
TTITLE5=Hang On To Your Love
TTITLE6=Pearls
TTITLE7=Cherish The Day
TTITLE8=Please Send Me Someone To Love
TTITLE9=Kiss Of Life
TTITLE10=Like A Tattoo
TTITLE11=No Ordinary Love
TTITLE12=Nothing Can Come Between Us
TTITLE13=Paradise
TTITLE14=Love Is Stronger Than Pride
TTITLE15=Never As Good As The First Time
EXTD=YEAR: 2003
EXTT0=
EXTT1=
EXTT2=
EXTT3=
EXTT4=
EXTT5=
EXTT6=
EXTT7=
EXTT8=
EXTT9=
EXTT10=
EXTT11=
EXTT12=
EXTT13=
EXTT14=
EXTT15=
PLAYORDER=
